<?xml version="1.0" encoding="utf-8"?>
<!-- Generator: Adobe Illustrator 24.3.0, SVG Export Plug-In . SVG Version: 6.00 Build 0)  -->
<svg version="1.1" id="Layer_1" xmlns="http://www.w3.org/2000/svg" xmlns:xlink="http://www.w3.org/1999/xlink" x="0px" y="0px"
	 viewBox="0 0 64 64" style="enable-background:new 0 0 64 64;" xml:space="preserve">
<style type="text/css">
	.st0{fill:none;stroke:#161C27;stroke-width:2;stroke-linecap:round;stroke-linejoin:round;stroke-miterlimit:10;}
</style>
<desc>A line styled icon from Orion Icon Library.</desc>
<path class="st0" d="M58.9,47l-10.4-6.8c-2.2-1.4-5-0.8-6.5,1.3c-2.4,2.9-5.3,7.7-16.2-3.2S19.6,24.4,22.5,22
	c2.1-1.5,2.7-4.3,1.3-6.5L17,5.1c-0.9-1.3-2.1-3.4-4.9-3S2,6.6,2,15.6s7.1,20,16.8,29.7S39.5,62,48.4,62s13.2-8,13.5-10
	S60.2,47.9,58.9,47z"/>
<path class="st0" d="M36,28L60,4 M60,24V4H40"/>
</svg>
