<?xml version="1.0" encoding="utf-8"?>
<!-- Generator: Adobe Illustrator 24.3.0, SVG Export Plug-In . SVG Version: 6.00 Build 0)  -->
<svg version="1.1" id="Layer_1" xmlns="http://www.w3.org/2000/svg" xmlns:xlink="http://www.w3.org/1999/xlink" x="0px" y="0px"
	 viewBox="0 0 64 64" style="enable-background:new 0 0 64 64;" xml:space="preserve">
<style type="text/css">
	.st0{fill:none;stroke:#161C27;stroke-width:2;stroke-linecap:round;stroke-linejoin:round;stroke-miterlimit:10;}
</style>
<desc>A line styled icon from Orion Icon Library.</desc>
<path class="st0" d="M40,41.5c0,0.8-0.7,1.5-1.5,1.5h-23c-0.8,0-1.5-0.7-1.5-1.5v-19c0-0.8,0.7-1.5,1.5-1.5h23
	c0.8,0,1.5,0.7,1.5,1.5V41.5z M52,23v18l-12-5v-8L52,23z"/>
<path class="st0" d="M12,2h40c5.5,0,10,4.5,10,10v40c0,5.5-4.5,10-10,10H12C6.5,62,2,57.5,2,52V12C2,6.5,6.5,2,12,2z"/>
</svg>
