<?xml version="1.0" encoding="utf-8"?>
<!-- Generator: Adobe Illustrator 24.3.0, SVG Export Plug-In . SVG Version: 6.00 Build 0)  -->
<svg version="1.1" id="Layer_1" xmlns="http://www.w3.org/2000/svg" xmlns:xlink="http://www.w3.org/1999/xlink" x="0px" y="0px"
	 viewBox="0 0 64 64" style="enable-background:new 0 0 64 64;" xml:space="preserve">
<style type="text/css">
	.st0{fill:#E95352;}
</style>
<desc>A solid styled icon from Orion Icon Library.</desc>
<path class="st0" d="M58,0H6C2.7,0,0,2.7,0,6v52c0,3.3,2.7,6,6,6h28V38h-7V28h7v-5c0.2-5.6,1.6-10.6,11.1-11H53v9.9h-6.7
	c-1.7-0.1-3.2,1.2-3.3,3c0,0,0,0.1,0,0.1v3h10l-1.7,10H43v26h15c3.3,0,6-2.7,6-6V6C64,2.7,61.3,0,58,0z"/>
</svg>
