<?xml version="1.0" encoding="utf-8"?>
<!-- Generator: Adobe Illustrator 24.3.0, SVG Export Plug-In . SVG Version: 6.00 Build 0)  -->
<svg version="1.1" id="Layer_1" xmlns="http://www.w3.org/2000/svg" xmlns:xlink="http://www.w3.org/1999/xlink" x="0px" y="0px"
	 viewBox="0 0 64 64" style="enable-background:new 0 0 64 64;" xml:space="preserve">
<style type="text/css">
	.st0{fill:#E95352;}
</style>
<desc>A solid styled icon from Orion Icon Library.</desc>
<path class="st0" d="M50.7,9H13.3C6,9,0,14.9,0,22.2v18.6C0,48.1,6,54,13.3,54h37.4C58,54,64,48.1,64,40.8V22.2C64,14.9,58,9,50.7,9
	z M41.7,32.4l-17.5,8.3c-0.4,0.2-0.8,0-0.9-0.3c0-0.1-0.1-0.2-0.1-0.3V23c0-0.4,0.3-0.7,0.7-0.7c0.1,0,0.2,0,0.3,0.1l17.5,8.8
	c0.3,0.2,0.5,0.6,0.3,0.9C42,32.2,41.8,32.3,41.7,32.4L41.7,32.4z"/>
</svg>
