<?xml version="1.0" encoding="utf-8"?>
<!-- Generator: Adobe Illustrator 24.3.0, SVG Export Plug-In . SVG Version: 6.00 Build 0)  -->
<svg version="1.1" id="Layer_1" xmlns="http://www.w3.org/2000/svg" xmlns:xlink="http://www.w3.org/1999/xlink" x="0px" y="0px"
	 viewBox="0 0 64 64" style="enable-background:new 0 0 64 64;" xml:space="preserve">
<style type="text/css">
	.st0{fill:#E95352;}
</style>
<desc>A solid styled icon from Orion Icon Library.</desc>
<path class="st0" d="M64,13.2c-2.3,1.1-4.8,1.8-7.3,2.1c2.6-1.7,4.5-4.3,5.5-7.2C60.3,9.3,56.1,11,54,11c-2.5-2.5-6-4-9.6-4
	c-7.3,0-13.2,5.9-13.2,13.2c0,0,0,0,0,0c0,1,0.1,2,0.3,2.9c-9.9-0.3-21.5-5.2-28-13.7c-3.4,6-1.6,13.5,4,17.4
	C6,27,3.1,26.7,1.8,25.4C1.7,30,3.9,36.1,12,38.3c-1.6,0.8-4.3,0.6-5.5,0.4c0.4,3.9,5.9,9,11.8,9C16.2,50.1,9,54.6,0,53.2
	C6.2,57,13.4,59,20.7,59c20.3,0.1,36.9-16.2,37-36.6c0-0.7,0-1.4,0-2v-0.5C60.2,18.1,62.4,15.8,64,13.2z"/>
</svg>
