<?xml version="1.0" encoding="utf-8"?>
<!-- Generator: Adobe Illustrator 24.3.0, SVG Export Plug-In . SVG Version: 6.00 Build 0)  -->
<svg version="1.1" id="Layer_1" xmlns="http://www.w3.org/2000/svg" xmlns:xlink="http://www.w3.org/1999/xlink" x="0px" y="0px"
	 viewBox="0 0 64 64" style="enable-background:new 0 0 64 64;" xml:space="preserve">
<style type="text/css">
	.st0{fill:#E95352;}
</style>
<desc>A solid styled icon from Orion Icon Library.</desc>
<path class="st0" d="M1.1,21.7h13V61h-13L1.1,21.7z M47.7,20.4c-5.7,0-9.1,2.1-12.7,6.7v-5.4H22V61h13.1V39.7c0-4.5,2.3-8.9,7.5-8.9
	s8.3,4.4,8.3,8.8V61H64V38.7C64,23.2,53.5,20.4,47.7,20.4z M7.7,2.6C3.4,2.6,0,5.7,0,9.5s3.4,6.9,7.7,6.9s7.7-3.1,7.7-6.9
	S12,2.6,7.7,2.6z"/>
</svg>
