<?xml version="1.0" encoding="utf-8"?>
<!-- Generator: Adobe Illustrator 24.3.0, SVG Export Plug-In . SVG Version: 6.00 Build 0)  -->
<svg version="1.1" id="Layer_1" xmlns="http://www.w3.org/2000/svg" xmlns:xlink="http://www.w3.org/1999/xlink" x="0px" y="0px"
	 viewBox="0 0 64 64" style="enable-background:new 0 0 64 64;" xml:space="preserve">
<style type="text/css">
	.st0{fill:#E95352;}
</style>
<desc>A solid styled icon from Orion Icon Library.</desc>
<path class="st0" d="M48,28h-1V15c0-8.3-6.7-15-15-15S17,6.7,17,15v13h-1c-4.4,0-8,3.6-8,8v20c0,4.4,3.6,8,8,8h32c4.4,0,8-3.6,8-8
	V36C56,31.6,52.4,28,48,28z M21,15c0-6.1,4.9-11,11-11s11,4.9,11,11v13H21V15z M34,51c0,1.1-0.9,2-2,2c-1.1,0-2-0.9-2-2V41
	c0-1.1,0.9-2,2-2c1.1,0,2,0.9,2,2V51z"/>
</svg>
