<?xml version="1.0" encoding="utf-8"?>
<!-- Generator: Adobe Illustrator 24.3.0, SVG Export Plug-In . SVG Version: 6.00 Build 0)  -->
<svg version="1.1" id="Layer_1" xmlns="http://www.w3.org/2000/svg" xmlns:xlink="http://www.w3.org/1999/xlink" x="0px" y="0px"
	 viewBox="0 0 64 64" style="enable-background:new 0 0 64 64;" xml:space="preserve">
<style type="text/css">
	.st0{fill:#E95352;}
</style>
<desc>A solid styled icon from Orion Icon Library.</desc>
<path class="st0" d="M32,0C14.3,0,0,14.3,0,32s14.3,32,32,32s32-14.3,32-32S49.7,0,32,0z M31.9,12.8c1.7-0.1,3.1,1.2,3.2,2.9
	c0,0.1,0,0.2,0,0.3l-1,22c0,1.1-1,2-2.1,1.9c-1,0-1.9-0.9-1.9-1.9l-1-22C28.9,14.3,30.2,12.9,31.9,12.8L31.9,12.8z M34.8,48.8
	c-1.6,1.6-4.1,1.6-5.7,0C28.4,48.1,28,47.1,28,46c0-2.2,1.8-4,4-4s4,1.8,4,4l0,0C36,47.1,35.6,48.1,34.8,48.8z"/>
</svg>
